<svg width="61" height="61" viewBox="0 0 61 61" fill="none" xmlns="http://www.w3.org/2000/svg">
<rect x="0.5" y="0.125" width="60" height="60" rx="7.5" fill="#464F62"/>
<g clip-path="url(#clip0_1198_928)">
<path d="M40.3524 27.6792L30.6189 17.9961L20.8854 27.6792C20.7706 27.7667 20.6759 27.8778 20.6077 28.005C20.5396 28.1322 20.4995 28.2726 20.4903 28.4167C20.4811 28.5607 20.503 28.7051 20.5544 28.84C20.6059 28.9748 20.6857 29.0971 20.7885 29.1984C20.8913 29.2997 21.0147 29.3778 21.1503 29.4273C21.2859 29.4768 21.4305 29.4966 21.5744 29.4854C21.7183 29.4741 21.8581 29.4321 21.9844 29.3621C22.1106 29.2922 22.2204 29.1959 22.3062 29.0798L29.6113 21.8351V41.1106C29.6113 41.3779 29.7175 41.6342 29.9065 41.8231C30.0954 42.0121 30.3517 42.1182 30.6189 42.1182C30.8862 42.1182 31.1425 42.0121 31.3314 41.8231C31.5204 41.6342 31.6265 41.3779 31.6265 41.1106V21.8351L38.9317 29.0798C39.1214 29.2682 39.3783 29.3735 39.6456 29.3726C39.913 29.3716 40.1691 29.2645 40.3575 29.0747C40.5459 28.885 40.6512 28.6282 40.6502 28.3608C40.6493 28.0934 40.5422 27.8374 40.3524 27.649V27.6792Z" fill="white"/>
</g>
<defs>
<clipPath id="clip0_1198_928">
<rect width="36.2739" height="36.2739" fill="white" transform="translate(12.4805 11.9492)"/>
</clipPath>
</defs>
</svg>
