<svg width="54" height="47" viewBox="0 0 54 47" fill="none" xmlns="http://www.w3.org/2000/svg">
<g clip-path="url(#clip0_2421_223)">
<path d="M25.1529 37.882C25.2269 37.961 26.1238 38.778 27.2238 38.778C28.3238 38.778 29.1338 38.053 29.3058 37.87L40.4338 26.743C41.5408 25.636 41.5408 23.841 40.4348 22.734C39.3278 21.626 37.5318 21.627 36.4258 22.733L30.0588 29.099V3.27202C30.0588 1.70702 28.7888 0.437012 27.2238 0.437012C25.6588 0.437012 24.3888 1.70702 24.3888 3.27202V29.098L18.0238 22.733C16.9168 21.627 15.1218 21.627 14.0138 22.733C12.9068 23.84 12.9068 25.635 14.0138 26.743L25.1529 37.882Z" fill="#EC028C"/>
<path d="M54.1204 31.7321V31.5001H54.0974C53.9754 30.4371 53.0834 29.6101 51.9894 29.6101C50.8954 29.6101 50.0034 30.4371 49.8824 31.5001H49.8694V31.6261C49.8674 31.6651 49.8574 31.7021 49.8574 31.7421C49.8574 31.7821 49.8674 31.8191 49.8694 31.8581V37.0831C49.8694 39.9691 48.2134 42.4071 46.2524 42.4071H8.19742C6.23642 42.4071 4.57941 39.9691 4.57941 37.0831V31.5001H4.55643C4.43443 30.4371 3.54243 29.6101 2.44843 29.6101C1.35443 29.6101 0.463431 30.4371 0.341431 31.5001H0.32843V31.6211C0.32643 31.6621 0.316406 31.7011 0.316406 31.7421C0.316406 31.7831 0.32643 31.8221 0.32843 31.8631V37.0831C0.32843 42.3631 3.85943 46.6591 8.19843 46.6591H46.2534C50.5924 46.6591 54.1224 42.3631 54.1224 37.0831V31.7521C54.1224 31.7491 54.1234 31.7451 54.1234 31.7421C54.1234 31.7391 54.1204 31.7351 54.1204 31.7321Z" fill="#EC028C"/>
</g>
<defs>
<clipPath id="clip0_2421_223">
<rect width="54" height="47" fill="white"/>
</clipPath>
</defs>
</svg>
