<svg width="9" height="5" viewBox="0 0 9 5" fill="none" xmlns="http://www.w3.org/2000/svg">
<path id="Vector" d="M8.2813 0.42208C8.16498 0.311897 8.00726 0.25 7.84279 0.25C7.67833 0.25 7.5206 0.311897 7.40429 0.42208L4.33415 3.33134L1.264 0.42208C1.14703 0.31502 0.990355 0.25578 0.827732 0.257119C0.66511 0.258458 0.509548 0.320269 0.394552 0.429239C0.279556 0.538209 0.214328 0.685619 0.212914 0.83972C0.211501 0.993821 0.274017 1.14228 0.386997 1.25313L3.89564 4.57792C4.01195 4.6881 4.16968 4.75 4.33415 4.75C4.49861 4.75 4.65634 4.6881 4.77265 4.57792L8.2813 1.25313C8.39757 1.14291 8.46289 0.99345 8.46289 0.837605C8.46289 0.68176 8.39757 0.532295 8.2813 0.42208Z" fill="#DDDDDD"/>
</svg>
