<svg width="272" height="196" viewBox="0 0 272 196" fill="none" xmlns="http://www.w3.org/2000/svg">
<path d="M272 195.25V0.249992L239.713 35.0213C225.367 50.5126 225.367 75.6299 239.713 91.1213L240.495 91.9351C242.447 94.0399 242.447 97.4637 240.495 99.5966C238.516 101.701 235.339 101.701 233.386 99.5966L190.112 52.9542C183.316 45.6295 172.276 45.6295 165.48 52.9542C158.658 60.2789 158.658 72.178 165.48 79.5028L227.918 146.828C229.767 148.793 229.767 151.992 227.918 153.985C226.096 155.949 223.127 155.949 221.279 153.985L179.124 108.521C167.069 95.5554 147.567 95.5554 135.537 108.521C123.482 121.487 123.482 142.535 135.537 155.5L163.111 185.22L146.421 187.69L70.6515 106.023C62.0331 96.706 48.0249 96.706 39.3804 106.023C30.762 115.341 30.762 130.439 39.3804 139.728C43.4683 144.134 61.5905 163.667 64.2203 166.501C65.9127 168.325 65.9127 171.3 64.1942 173.152L64.1161 173.237C62.4757 175.005 59.7939 175.005 58.1535 173.237L50.3162 164.789C40.8646 154.602 25.5024 154.602 16.0247 164.789L0.5 195.25" fill="#F3FFFD" fill-opacity="0.2"/>
</svg>
