<svg width="10" height="13" viewBox="0 0 10 13" fill="none" xmlns="http://www.w3.org/2000/svg">
<path id="Vector" d="M5.17299 6.07381C4.76348 6.07381 4.37074 5.9137 4.08117 5.62869C3.7916 5.34369 3.62892 4.95714 3.62892 4.55408C3.62892 4.15102 3.7916 3.76447 4.08117 3.47947C4.37074 3.19446 4.76348 3.03435 5.17299 3.03435C5.5825 3.03435 5.97524 3.19446 6.26481 3.47947C6.55437 3.76447 6.71705 4.15102 6.71705 4.55408C6.71705 4.75365 6.67711 4.95127 6.59952 5.13566C6.52192 5.32004 6.40819 5.48757 6.26481 5.62869C6.12143 5.76981 5.95121 5.88176 5.76388 5.95813C5.57654 6.0345 5.37576 6.07381 5.17299 6.07381ZM5.17299 0.298828C4.02636 0.298828 2.92669 0.747148 2.1159 1.54516C1.30511 2.34318 0.849609 3.42552 0.849609 4.55408C0.849609 7.74552 5.17299 12.4567 5.17299 12.4567C5.17299 12.4567 9.49637 7.74552 9.49637 4.55408C9.49637 3.42552 9.04087 2.34318 8.23008 1.54516C7.41929 0.747148 6.31962 0.298828 5.17299 0.298828Z" fill="#EC028C"/>
</svg>
