<svg width="16" height="16" viewBox="0 0 16 16" fill="none" xmlns="http://www.w3.org/2000/svg">
<g clip-path="url(#clip0_1510_1131)">
<path d="M15.3167 14.433L11.0511 10.1674C11.8774 9.1468 12.3749 7.84993 12.3749 6.43745C12.3749 3.16373 9.71114 0.5 6.43742 0.5C3.1637 0.5 0.5 3.16371 0.5 6.43743C0.5 9.71114 3.16373 12.3749 6.43745 12.3749C7.84993 12.3749 9.1468 11.8774 10.1674 11.0511L14.433 15.3167C14.5549 15.4386 14.7149 15.4999 14.8749 15.4999C15.0349 15.4999 15.1949 15.4386 15.3167 15.3167C15.5611 15.0724 15.5611 14.6774 15.3167 14.433ZM6.43745 11.1249C3.85247 11.1249 1.75 9.02241 1.75 6.43743C1.75 3.85244 3.85247 1.74997 6.43745 1.74997C9.02244 1.74997 11.1249 3.85244 11.1249 6.43743C11.1249 9.02241 9.02241 11.1249 6.43745 11.1249Z" fill="white"/>
</g>
<defs>
<clipPath id="clip0_1510_1131">
<rect width="15" height="15" fill="white" transform="translate(0.5 0.5)"/>
</clipPath>
</defs>
</svg>
