<svg width="14" height="16" viewBox="0 0 14 16" fill="none" xmlns="http://www.w3.org/2000/svg">
<g id="solar:calendar-bold">
<path id="Vector" d="M4.84913 2.44336C4.84913 2.32422 4.80798 2.20996 4.73472 2.12571C4.66146 2.04147 4.56211 1.99414 4.45851 1.99414C4.35491 1.99414 4.25555 2.04147 4.1823 2.12571C4.10904 2.20996 4.06789 2.32422 4.06789 2.44336V3.3897C3.31789 3.45858 2.82623 3.62749 2.46477 4.04376C2.1028 4.45943 1.95592 5.02545 1.89551 5.88734H12.2298C12.1694 5.02485 12.0225 4.45943 11.6605 4.04376C11.2991 3.62749 10.8069 3.45858 10.0574 3.3891V2.44336C10.0574 2.32422 10.0163 2.20996 9.94301 2.12571C9.86976 2.04147 9.7704 1.99414 9.6668 1.99414C9.5632 1.99414 9.46385 2.04147 9.39059 2.12571C9.31733 2.20996 9.27618 2.32422 9.27618 2.44336V3.34957C8.92983 3.34179 8.54129 3.34179 8.10431 3.34179H6.021C5.58402 3.34179 5.19548 3.34179 4.84913 3.34957V2.44336Z" fill="#EC028C"/>
<path id="Vector_2" fill-rule="evenodd" clip-rule="evenodd" d="M1.84863 8.14061C1.84863 7.63809 1.84863 7.19127 1.8554 6.79297H12.2584C12.2652 7.19127 12.2652 7.63809 12.2652 8.14061V9.33852C12.2652 11.5972 12.2652 12.7268 11.6548 13.4282C11.0449 14.1302 10.0626 14.1302 8.09858 14.1302H6.01527C4.05122 14.1302 3.06894 14.1302 2.45904 13.4282C1.84863 12.7268 1.84863 11.5972 1.84863 9.33852V8.14061ZM9.66107 9.33852C9.7992 9.33852 9.93168 9.27542 10.0294 9.16309C10.127 9.05077 10.1819 8.89842 10.1819 8.73957C10.1819 8.58072 10.127 8.42837 10.0294 8.31604C9.93168 8.20372 9.7992 8.14061 9.66107 8.14061C9.52294 8.14061 9.39046 8.20372 9.29279 8.31604C9.19511 8.42837 9.14024 8.58072 9.14024 8.73957C9.14024 8.89842 9.19511 9.05077 9.29279 9.16309C9.39046 9.27542 9.52294 9.33852 9.66107 9.33852ZM9.66107 11.7343C9.7992 11.7343 9.93168 11.6712 10.0294 11.5589C10.127 11.4466 10.1819 11.2942 10.1819 11.1354C10.1819 10.9765 10.127 10.8242 10.0294 10.7119C9.93168 10.5995 9.7992 10.5364 9.66107 10.5364C9.52294 10.5364 9.39046 10.5995 9.29279 10.7119C9.19511 10.8242 9.14024 10.9765 9.14024 11.1354C9.14024 11.2942 9.19511 11.4466 9.29279 11.5589C9.39046 11.6712 9.52294 11.7343 9.66107 11.7343ZM7.57775 8.73957C7.57775 8.89842 7.52288 9.05077 7.42521 9.16309C7.32753 9.27542 7.19506 9.33852 7.05692 9.33852C6.91879 9.33852 6.78632 9.27542 6.68864 9.16309C6.59097 9.05077 6.5361 8.89842 6.5361 8.73957C6.5361 8.58072 6.59097 8.42837 6.68864 8.31604C6.78632 8.20372 6.91879 8.14061 7.05692 8.14061C7.19506 8.14061 7.32753 8.20372 7.42521 8.31604C7.52288 8.42837 7.57775 8.58072 7.57775 8.73957ZM7.57775 11.1354C7.57775 11.2942 7.52288 11.4466 7.42521 11.5589C7.32753 11.6712 7.19506 11.7343 7.05692 11.7343C6.91879 11.7343 6.78632 11.6712 6.68864 11.5589C6.59097 11.4466 6.5361 11.2942 6.5361 11.1354C6.5361 10.9765 6.59097 10.8242 6.68864 10.7119C6.78632 10.5995 6.91879 10.5364 7.05692 10.5364C7.19506 10.5364 7.32753 10.5995 7.42521 10.7119C7.52288 10.8242 7.57775 10.9765 7.57775 11.1354ZM4.45278 9.33852C4.59091 9.33852 4.72339 9.27542 4.82106 9.16309C4.91874 9.05077 4.97361 8.89842 4.97361 8.73957C4.97361 8.58072 4.91874 8.42837 4.82106 8.31604C4.72339 8.20372 4.59091 8.14061 4.45278 8.14061C4.31465 8.14061 4.18217 8.20372 4.0845 8.31604C3.98682 8.42837 3.93195 8.58072 3.93195 8.73957C3.93195 8.89842 3.98682 9.05077 4.0845 9.16309C4.18217 9.27542 4.31465 9.33852 4.45278 9.33852ZM4.45278 11.7343C4.59091 11.7343 4.72339 11.6712 4.82106 11.5589C4.91874 11.4466 4.97361 11.2942 4.97361 11.1354C4.97361 10.9765 4.91874 10.8242 4.82106 10.7119C4.72339 10.5995 4.59091 10.5364 4.45278 10.5364C4.31465 10.5364 4.18217 10.5995 4.0845 10.7119C3.98682 10.8242 3.93195 10.9765 3.93195 11.1354C3.93195 11.2942 3.98682 11.4466 4.0845 11.5589C4.18217 11.6712 4.31465 11.7343 4.45278 11.7343Z" fill="#EC028C"/>
</g>
</svg>
