<svg width="34" height="35" viewBox="0 0 34 35" fill="none" xmlns="http://www.w3.org/2000/svg">
<g id="ei:arrow-up">
<path id="Vector" d="M5.40156 17.6273C5.40156 11.2823 10.5316 6.15234 16.8766 6.15234C23.2216 6.15234 28.3516 11.2823 28.3516 17.6273C28.3516 23.9723 23.2216 29.1023 16.8766 29.1023C10.5316 29.1023 5.40156 23.9723 5.40156 17.6273ZM27.0016 17.6273C27.0016 12.0248 22.4791 7.50234 16.8766 7.50234C11.2741 7.50234 6.75156 12.0248 6.75156 17.6273C6.75156 23.2298 11.2741 27.7523 16.8766 27.7523C22.4791 27.7523 27.0016 23.2298 27.0016 17.6273Z" fill="white"/>
<path id="Vector_2" d="M15.7302 23.2301L21.3327 17.6276L15.7302 12.0251L16.6752 11.0801L23.2227 17.6276L16.6752 24.1751L15.7302 23.2301Z" fill="white"/>
<path id="Vector_3" d="M22.2754 16.9531V18.3031H10.8004V16.9531H22.2754Z" fill="white"/>
</g>
</svg>
