<svg width="25" height="25" viewBox="0 0 25 25" fill="none" xmlns="http://www.w3.org/2000/svg">
<path d="M3.98866 12.6297C3.98866 7.99622 7.73488 4.25 12.3684 4.25C17.0018 4.25 20.748 7.99622 20.748 12.6297C20.748 17.2632 17.0018 21.0094 12.3684 21.0094C7.73488 21.0094 3.98866 17.2632 3.98866 12.6297ZM19.7622 12.6297C19.7622 8.53843 16.4596 5.23585 12.3684 5.23585C8.27709 5.23585 4.97451 8.53843 4.97451 12.6297C4.97451 16.721 8.27709 20.0235 12.3684 20.0235C16.4596 20.0235 19.7622 16.721 19.7622 12.6297Z" fill="#EC028C"/>
<path d="M11.5344 16.7203L15.6257 12.629L11.5344 8.53775L12.2245 7.84766L17.0059 12.629L12.2245 17.4104L11.5344 16.7203Z" fill="#EC028C"/>
<path d="M16.3125 12.1367V13.1226H7.93281V12.1367H16.3125Z" fill="#EC028C"/>
</svg>
