<svg width="5" height="8" viewBox="0 0 5 8" fill="none" xmlns="http://www.w3.org/2000/svg">
<path d="M0.793935 0.532881C0.695771 0.636505 0.640625 0.77703 0.640625 0.923555C0.640625 1.07008 0.695771 1.2106 0.793935 1.31423L3.38587 4.04949L0.793935 6.78476C0.698553 6.88898 0.645774 7.02856 0.646967 7.17344C0.64816 7.31833 0.703229 7.45692 0.800313 7.55937C0.897397 7.66183 1.02873 7.71994 1.16602 7.7212C1.30331 7.72246 1.43558 7.66676 1.53434 7.5661L4.49648 4.44017C4.59464 4.33654 4.64979 4.19602 4.64979 4.04949C4.64979 3.90297 4.59464 3.76244 4.49648 3.65882L1.53434 0.532881C1.43614 0.429289 1.30298 0.371094 1.16414 0.371094C1.02529 0.371094 0.892129 0.429289 0.793935 0.532881Z" fill="#797979"/>
</svg>
